Coordinates
version=1
nRows=12
nColumns=34
inDegrees=yes

Units are S.I. units (second, meters, Newtons, ...)
If the header above contains a line with 'inDegrees', this indicates whether rotational values are in degrees (yes) or radians (no).

endheader
time	pelvis_tilt	pelvis_list	pelvis_rotation	pelvis_tx	pelvis_ty	pelvis_tz	hip_flexion_r	hip_adduction_r	hip_rotation_r	knee_angle_r	ankle_angle_r	subtalar_angle_r	mtp_angle_r	hip_flexion_l	hip_adduction_l	hip_rotation_l	knee_angle_l	ankle_angle_l	subtalar_angle_l	mtp_angle_l	lumbar_extension	lumbar_bending	lumbar_rotation	arm_flex_r	arm_add_r	arm_rot_r	elbow_flex_r	pro_sup_r	arm_flex_l	arm_add_l	arm_rot_l	elbow_flex_l	pro_sup_l
      2.80000000	     -6.45065616	      3.72353485	      7.74142219	     -6.12913974	      1.78223859	      0.57499840	     10.28262558	    -10.36560829	      5.60166493	     32.25837699	      0.18949995	    -17.49109051	      0.00000000	      0.14200994	      5.71817021	     -8.63744067	      9.39801560	      6.01835093	     -1.53953626	      0.00000000	     -8.26481687	     -3.57216277	     -8.36405220	      6.24189006	     -6.15825228	     11.47003095	     37.29452048	     93.33268580	     -1.99550554	    -10.33320450	     -1.89762317	     52.84368258	     85.02037915
      2.81666670	     -4.67886585	      4.30353502	      8.41849069	     -6.12197774	      1.78042136	      0.57296198	     10.03001271	    -10.26714532	      5.44524502	     35.39522220	     -1.16429810	    -19.51603389	      0.00000000	     -2.45184152	      6.10559044	     -8.96570088	      8.95538013	      6.36826277	     -0.45956582	      0.00000000	     -9.91660212	     -3.83572927	     -9.38980219	      5.81459153	     -5.44531161	     10.23036275	     33.22644812	     92.46280035	     -1.38007232	    -10.70816027	     -1.40440483	     48.71176161	     84.67144240
      2.83333330	     -3.03949087	      4.76384222	      8.81894328	     -6.11990594	      1.77807972	      0.57183998	     10.10321648	     -9.93840395	      5.36219516	     38.13140673	     -1.99150462	    -21.41612371	      0.00000000	     -4.83249967	      6.34876419	     -9.26995963	      8.62900649	      7.34344913	      0.37432288	      0.00000000	    -10.93443913	     -3.98597025	     -9.86347944	      5.08735320	     -4.80130083	      8.51023568	     29.32865794	     91.31042061	     -0.80169720	    -10.94820524	     -0.21409136	     44.41575323	     84.19366323
      2.85000000	     -1.76541821	      5.27840528	      9.17272729	     -6.12302075	      1.77423955	      0.57170982	     11.18547837	     -9.66519750	      5.27366702	     40.90321284	     -1.60998546	    -22.84196937	      0.00000000	     -6.49327670	      6.69237849	     -9.23868793	      8.54046245	      8.02215766	      0.82877644	      0.00000000	    -12.22891850	     -4.18233058	    -10.46028303	      4.84702079	     -4.31346018	      7.06822705	     26.22591920	     90.35408335	      0.00550490	    -11.40270329	      1.11755937	     40.49137234	     83.78841706
      2.86666670	     -0.47876279	      5.52299270	      9.27573162	     -6.11734461	      1.77704332	      0.56984995	     11.98445418	     -9.01220127	      5.22003817	     42.50095987	     -0.96529596	    -23.41406715	      0.00000000	     -8.38584715	      6.75389051	     -9.30416615	      8.19402258	      8.48937309	      1.71277615	      0.00000000	    -13.33056238	     -4.16672807	    -10.59686271	      4.87689803	     -4.07518401	      6.14255525	     23.38467381	     89.56920172	      0.82094564	    -11.76713502	      2.68379489	     36.39886255	     83.37545452
      2.88333330	      0.66771094	      5.61051807	      9.21183168	     -6.11047514	      1.77831966	      0.56892769	     12.81538064	     -8.18988667	      5.11325781	     43.44297256	      0.05410749	    -23.52208575	      0.00000000	    -10.24083963	      6.69551586	     -9.53049316	      7.65917143	      8.92446086	      2.67450197	      0.00000000	    -14.41156432	     -4.03759651	    -10.84265045	      5.07221762	     -3.88230741	      5.73480552	     21.26418362	     88.99818702	      1.43168484	    -12.11874875	      4.22835947	     32.68576284	     83.01682144
      2.90000000	      1.52075562	      5.45086322	      8.94171861	     -6.10620233	      1.77801878	      0.56838443	     13.71891730	     -7.17251707	      4.87406989	     43.48636623	      1.02841295	    -23.44471729	      0.00000000	    -11.84010959	      6.47980675	     -9.92379958	      7.03511228	      9.20676200	      3.74064597	      0.00000000	    -15.06795784	     -3.78917940	    -10.48686523	      5.18761337	     -3.97197957	      5.80735567	     19.08465673	     88.41481947	      1.98895518	    -12.23380884	      6.29932957	     29.00630093	     82.50622399
      2.91666670	      1.92842163	      5.18955578	      8.49481536	     -6.10307808	      1.77823158	      0.56767822	     15.06054991	     -6.10804183	      4.74748908	     43.13248965	      1.66592558	    -23.18633063	      0.00000000	    -13.01192243	      6.30112050	    -10.43370296	      6.30887324	      9.30060614	      4.63048991	      0.00000000	    -15.60388990	     -3.49757320	    -10.32758435	      5.24051878	     -4.05557102	      6.35938913	     17.41156203	     87.72727455	      2.30741610	    -12.32087844	      8.79978982	     25.89976734	     81.73912380
      2.93333330	      1.98442936	      4.86513218	      8.03314261	     -6.09941628	      1.78042827	      0.56585390	     16.60056360	     -5.13325825	      4.51718365	     42.21751768	      1.25115453	    -22.78535070	      0.00000000	    -13.70712696	      6.16307514	    -10.86315809	      5.56668293	      8.06686853	      4.78312213	      0.00000000	    -16.14132881	     -3.10588060	    -10.52428183	      4.80612299	     -4.24440762	      6.43334645	     17.01914882	     87.59744460	      1.55089267	    -12.27159193	      9.24281682	     25.08856630	     81.60888398
      2.95000000	      1.75590021	      4.65291648	      7.77007712	     -6.09892019	      1.77705085	      0.56526941	     18.36930268	     -4.41874706	      4.04090991	     40.79377075	      0.99295968	    -22.09936693	      0.00000000	    -13.78809761	      6.12148660	    -11.15234663	      5.09298518	      6.69697037	      4.54888961	      0.00000000	    -16.21656584	     -2.98000154	    -10.07443036	      4.46262457	     -4.66473364	      8.67981459	     15.07952644	     85.72712850	      2.59951752	    -12.41258370	     14.93589814	     21.40317978	     79.37144346
      2.96666670	      1.40736978	      4.89500898	      7.40292015	     -6.09125010	      1.77200239	      0.56522189	     20.18484664	     -4.03229869	      3.94622989	     39.25339623	      3.43732820	    -20.32955499	      0.00000000	    -13.76209991	      6.47934008	    -11.82347699	      4.75612688	      6.02847375	      4.40297760	      0.00000000	    -16.57453136	     -3.34570801	    -10.45998069	      4.06071198	     -4.66392728	      9.00940788	     14.50378721	     84.85399289	      2.21256308	    -12.58880918	     16.15599605	     20.78418815	     78.34135046
      2.98333330	      0.68942864	      5.27023460	      7.38046011	     -6.08691687	      1.76689810	      0.56459120	     22.24235808	     -3.90751482	      3.69455076	     37.16427978	      5.89935818	    -17.25357203	      0.00000000	    -13.31414497	      6.93004457	    -11.92647315	      4.57972889	      6.03333436	      4.09820623	      0.00000000	    -16.41717510	     -3.82254290	    -10.78530076	      3.38324372	     -4.84322471	      9.48409432	     14.21738664	     84.16398213	      1.86964246	    -12.76661883	     17.59360913	     20.19313262	     77.62172021
